<svg version="1.1" id="Layer_1" xmlns="http://www.w3.org/2000/svg" xmlns:xlink="http://www.w3.org/1999/xlink" viewBox="0 0 22 14" style="enable-background:new 0 0 22 14;" xml:space="preserve">
<path d="M0.384,8.118c-0.545-0.647-0.545-1.587,0-2.235l0,0
	C3.67,1.979,7.239,0,10.989,0s7.319,1.979,10.604,5.883c0.545,0.647,0.545,1.587,0,2.235C18.308,12.021,14.74,14,10.989,14
	S3.67,12.021,0.384,8.118z M1.43,7.207c3.013,3.579,6.229,5.393,9.56,5.393c3.331,0,6.547-1.814,9.56-5.394
	c0.1-0.118,0.1-0.295,0-0.413C17.536,3.214,14.32,1.4,10.989,1.4c-3.33,0-6.546,1.814-9.56,5.394l0,0
	C1.33,6.911,1.33,7.089,1.43,7.207z M6.86,7c0-2.316,1.852-4.2,4.129-4.2s4.129,1.884,4.129,4.2s-1.852,4.2-4.129,4.2
	S6.86,9.316,6.86,7z M8.236,7c0,1.544,1.235,2.8,2.753,2.8s2.752-1.256,2.752-2.8s-1.234-2.8-2.752-2.8S8.236,5.456,8.236,7z"/>
</svg>
